<svg xmlns="http://www.w3.org/2000/svg" viewBox="0 0 64 64">
  <rect width="64" height="64" rx="16" fill="#fbf8f1" />
  <path
    d="M32 50s-3.1-2.6-7.1-6.1C16.7 36.8 10 31 10 23.2 10 17.2 14.7 13 20.4 13c4.1 0 7.9 2.3 9.6 5.9C31.7 15.3 35.5 13 39.6 13 45.3 13 50 17.2 50 23.2c0 7.8-6.7 13.6-14.9 20.7C31.1 47.4 32 50 32 50Z"
    fill="#c9a45c"
  />
  <path
    d="M32 50s-3.1-2.6-7.1-6.1C16.7 36.8 10 31 10 23.2 10 17.2 14.7 13 20.4 13c4.1 0 7.9 2.3 9.6 5.9C31.7 15.3 35.5 13 39.6 13 45.3 13 50 17.2 50 23.2c0 7.8-6.7 13.6-14.9 20.7C31.1 47.4 32 50 32 50Z"
    fill="none"
    stroke="#183b6b"
    stroke-linejoin="round"
    stroke-width="2"
  />
</svg>
